<svg xmlns="http://www.w3.org/2000/svg" viewBox="0 0 1200 700" width="1200" height="700" role="img" aria-label="POLICE — Ktav Ichoum">
<defs>
  <radialGradient id="lum" cx="26%" cy="18%" r="86%">
    <stop offset="0" stop-color="#22222a"/><stop offset="1" stop-color="#0B0B0D"/>
  </radialGradient>
  <filter id="grain"><feTurbulence type="fractalNoise" baseFrequency="0.85" numOctaves="3" seed="37"/>
    <feColorMatrix type="saturate" values="0"/></filter>
  <linearGradient id="fade" x1="0" y1="0" x2="0" y2="1">
    <stop offset="0" stop-color="#fff" stop-opacity="0"/><stop offset="1" stop-color="#000" stop-opacity=".45"/>
  </linearGradient>
</defs>

<rect width="1200" height="700" fill="url(#lum)"/>
<g opacity=".14"><path d="M0 0h1200v700H0z" filter="url(#grain)"/></g>
<rect width="1200" height="700" fill="url(#fade)"/>

<!-- reglure de machine a ecrire -->
<g opacity=".05" stroke="#EDECE7" stroke-width="1">
  <path d="M64 150h1072"/><path d="M64 180h1072"/><path d="M64 210h1072"/><path d="M64 240h1072"/><path d="M64 270h1072"/><path d="M64 300h1072"/><path d="M64 330h1072"/><path d="M64 360h1072"/><path d="M64 390h1072"/><path d="M64 420h1072"/><path d="M64 450h1072"/><path d="M64 480h1072"/><path d="M64 510h1072"/><path d="M64 540h1072"/><path d="M64 570h1072"/><path d="M64 600h1072"/><path d="M64 630h1072"/>
</g>

<rect x="40" y="40" width="1120" height="620" fill="none" stroke="#b8860b" stroke-width="1" opacity=".45"/>
<path d="M40 40h18M40 40v18" stroke="#b8860b" stroke-width="1.4" opacity=".85"/><path d="M1160 40h-18M1160 40v18" stroke="#b8860b" stroke-width="1.4" opacity=".85"/><path d="M40 660h18M40 660v-18" stroke="#b8860b" stroke-width="1.4" opacity=".85"/><path d="M1160 660h-18M1160 660v-18" stroke="#b8860b" stroke-width="1.4" opacity=".85"/>

<!-- entete -->
<text x="72" y="106" fill="#b8860b" font-family="Oswald,'Archivo Narrow','Arial Narrow',Arial,'Segoe UI',sans-serif" font-size="19" font-weight="600" letter-spacing="7.5">KTAV ICHOUM</text>
<text x="1128" y="106" text-anchor="end" fill="#EDECE7" opacity=".42" font-family="Oswald,'Archivo Narrow','Arial Narrow',Arial,'Segoe UI',sans-serif" font-size="16" letter-spacing="4.5">PIÈCE DE DOSSIER</text>
<path d="M72 124h1056" stroke="#EDECE7" stroke-width="1" opacity=".14"/>

<!-- rubrique -->
<text x="72" y="252" fill="#d10a13" font-family="Oswald,'Archivo Narrow','Arial Narrow',Arial,'Segoe UI',sans-serif" font-size="26" font-weight="700" letter-spacing="6.5">POLICE</text>
<text x="72" y="404" fill="#EDECE7" font-family="'Segoe UI','Arial Hebrew','Noto Sans Hebrew',David,Arial,sans-serif" font-size="118" font-weight="700" opacity=".97" direction="rtl">משטרה</text>
<path d="M72 446h190" stroke="#b8860b" stroke-width="3"/>

<!-- piece caviardee -->
<rect x="640" y="300" width="379" height="21" fill="#000" rx="1"/><rect x="640" y="300" width="379" height="21" fill="#d10a13" opacity=".10" rx="1"/><rect x="640" y="330" width="414" height="21" fill="#000" rx="1"/><rect x="640" y="330" width="414" height="21" fill="#d10a13" opacity=".10" rx="1"/><rect x="640" y="365" width="420" height="11" fill="#EDECE7" opacity=".13" rx="1"/><rect x="640" y="395" width="205" height="11" fill="#EDECE7" opacity=".13" rx="1"/><rect x="640" y="425" width="383" height="11" fill="#EDECE7" opacity=".13" rx="1"/><rect x="640" y="450" width="334" height="21" fill="#000" rx="1"/><rect x="640" y="450" width="334" height="21" fill="#d10a13" opacity=".10" rx="1"/><rect x="640" y="485" width="343" height="11" fill="#EDECE7" opacity=".13" rx="1"/><rect x="640" y="515" width="366" height="11" fill="#EDECE7" opacity=".13" rx="1"/><rect x="640" y="545" width="377" height="11" fill="#EDECE7" opacity=".13" rx="1"/>

<!-- cachet d'audience -->
<g transform="translate(1002 566) rotate(-9)" opacity=".8">
  <rect x="-118" y="-46" width="236" height="92" rx="6" fill="none" stroke="#d10a13" stroke-width="4"/>
  <rect x="-108" y="-36" width="216" height="72" rx="3" fill="none" stroke="#d10a13" stroke-width="1.4" opacity=".75"/>
  <text x="0" y="14" text-anchor="middle" fill="#d10a13" font-family="'Segoe UI','Arial Hebrew','Noto Sans Hebrew',David,Arial,sans-serif" font-size="40" font-weight="700" direction="rtl">חקירה</text>
</g>

<text x="72" y="646" fill="#EDECE7" opacity=".34" font-family="Oswald,'Archivo Narrow','Arial Narrow',Arial,'Segoe UI',sans-serif" font-size="15" letter-spacing="3.2">SYNTHÈSE ORIGINALE · SOURCES CITÉES</text>
</svg>